<svg version="1.0" xmlns="http://www.w3.org/2000/svg"
 width="48.000000pt" height="48.000000pt" viewBox="0 0 48.000000 48.000000"
 preserveAspectRatio="xMidYMid meet">

<g transform="translate(0.000000,48.000000) scale(0.100000,-0.100000)"
fill="#000000" stroke="none">
<path d="M224 455 c-3 -8 -24 -20 -46 -25 -53 -15 -114 -77 -129 -132 -23 -89
12 -182 88 -229 57 -36 154 -34 210 3 52 34 84 86 86 140 3 62 -22 57 -38 -7
-32 -124 -177 -166 -266 -76 -81 80 -58 206 47 256 34 16 36 16 49 -2 13 -17
15 -17 41 9 l28 27 -24 26 c-27 29 -38 31 -46 10z"/>
<path d="M305 460 c-4 -6 -1 -17 5 -25 10 -12 10 -18 0 -30 -10 -12 -10 -19
-1 -28 9 -9 18 -5 38 16 l27 26 -24 26 c-26 27 -35 30 -45 15z"/>
<path d="M168 303 c-22 -5 -24 -33 -3 -33 11 0 15 -12 15 -50 0 -38 4 -50 15
-50 12 0 15 14 15 70 0 72 -1 74 -42 63z"/>
<path d="M244 296 c-13 -33 0 -61 29 -64 39 -5 28 -28 -12 -24 -22 1 -31 -2
-31 -13 0 -18 40 -29 69 -20 43 13 35 85 -10 85 -11 0 -19 5 -19 10 0 6 11 10
25 10 16 0 25 6 25 15 0 20 -68 21 -76 1z"/>
</g>
</svg>
