<svg version="1.0" xmlns="http://www.w3.org/2000/svg"
 width="48.000000pt" height="48.000000pt" viewBox="0 0 48.000000 48.000000"
 preserveAspectRatio="xMidYMid meet">

<g transform="translate(0.000000,48.000000) scale(0.100000,-0.100000)"
fill="#000000" stroke="none">
<path d="M172 409 c-48 -14 -109 -80 -123 -131 -15 -59 -4 -125 29 -173 l28
-40 131 -3 132 -3 24 33 c99 133 25 311 -134 323 -30 3 -69 0 -87 -6z m148
-42 c95 -50 119 -179 48 -255 -20 -20 -30 -22 -128 -22 -98 0 -108 2 -128 22
-94 101 -13 278 128 278 20 0 56 -10 80 -23z"/>
<path d="M183 335 c-60 -26 -87 -102 -59 -168 8 -20 19 -37 24 -37 18 0 21 14
7 41 -39 75 10 149 100 149 36 0 47 13 19 24 -25 9 -56 6 -91 -9z"/>
<path d="M279 284 c-13 -14 -34 -30 -47 -35 -17 -6 -22 -16 -20 -32 4 -32 45
-36 57 -5 5 13 21 34 35 47 28 26 34 51 13 51 -8 0 -24 -12 -38 -26z"/>
<path d="M340 235 c0 -20 -7 -49 -15 -65 -15 -28 -6 -48 15 -35 16 10 33 81
26 109 -9 38 -26 32 -26 -9z"/>
</g>
</svg>
