<svg width="22" height="22" viewBox="0 0 22 22" fill="none" xmlns="http://www.w3.org/2000/svg">
<path d="M12.739 1L13.4827 0.902996C13.434 0.529445 13.1157 0.25 12.739 0.25V1ZM9.26073 1V0.25C8.88401 0.25 8.56575 0.529445 8.51703 0.902996L9.26073 1ZM13.1041 3.79916L12.3604 3.89617C12.3989 4.19133 12.6083 4.4358 12.8941 4.51915L13.1041 3.79916ZM14.6036 4.42085L14.2427 5.07832C14.5038 5.2216 14.8248 5.19688 15.0609 5.01532L14.6036 4.42085ZM16.8417 2.69919L17.3721 2.16886C17.1057 1.90248 16.6831 1.87503 16.3845 2.10472L16.8417 2.69919ZM19.3012 5.15869L19.8957 5.61597C20.1254 5.31738 20.098 4.89474 19.8316 4.62836L19.3012 5.15869ZM17.5795 7.397L16.985 6.93972C16.8035 7.17573 16.7787 7.49679 16.922 7.75782L17.5795 7.397ZM18.2008 8.89571L17.4808 9.10576C17.5642 9.39151 17.8086 9.60092 18.1038 9.63941L18.2008 8.89571ZM21 9.26083H21.75C21.75 8.88411 21.4706 8.56585 21.097 8.51713L21 9.26083ZM21 12.7391L21.097 13.4828C21.4706 13.4341 21.75 13.1158 21.75 12.7391H21ZM18.2008 13.1042L18.1038 12.3605C17.8086 12.399 17.5642 12.6084 17.4808 12.8942L18.2008 13.1042ZM17.5792 14.6036L16.9217 14.2427C16.7784 14.5037 16.8031 14.8248 16.9847 15.0609L17.5792 14.6036ZM19.3005 16.8413L19.8308 17.3717C20.0972 17.1053 20.1247 16.6826 19.895 16.3841L19.3005 16.8413ZM16.841 19.3008L16.3837 19.8953C16.6823 20.125 17.105 20.0975 17.3713 19.8312L16.841 19.3008ZM14.6031 17.5794L15.0604 16.9849C14.8244 16.8034 14.5033 16.7786 14.2423 16.9219L14.6031 17.5794ZM13.1041 18.2008L12.8941 17.4808C12.6083 17.5642 12.3989 17.8087 12.3604 18.1038L13.1041 18.2008ZM12.739 21V21.75C13.1157 21.75 13.434 21.4706 13.4827 21.097L12.739 21ZM9.26073 21L8.51703 21.097C8.56575 21.4706 8.88401 21.75 9.26073 21.75V21ZM8.89561 18.2008L9.63931 18.1037C9.60081 17.8086 9.39141 17.5641 9.10567 17.4808L8.89561 18.2008ZM7.39693 17.5794L7.75776 16.9219C7.49672 16.7787 7.17566 16.8034 6.93964 16.985L7.39693 17.5794ZM5.15911 19.3008L4.62878 19.8312C4.89516 20.0975 5.3178 20.125 5.6164 19.8953L5.15911 19.3008ZM2.69961 16.8413L2.10514 16.384C1.87546 16.6826 1.9029 17.1053 2.16928 17.3717L2.69961 16.8413ZM4.42089 14.6037L5.01536 15.0609C5.19692 14.8249 5.22165 14.5038 5.07836 14.2428L4.42089 14.6037ZM3.79919 13.1042L4.51918 12.8942C4.43582 12.6084 4.19136 12.399 3.8962 12.3605L3.79919 13.1042ZM1 12.7391H0.25C0.25 13.1158 0.529445 13.4341 0.902996 13.4828L1 12.7391ZM1 9.26083L0.902996 8.51713C0.529445 8.56585 0.25 8.88411 0.25 9.26083H1ZM3.79922 8.89571L3.89622 9.63941C4.19138 9.60091 4.43584 9.39151 4.5192 9.10576L3.79922 8.89571ZM4.42057 7.39692L5.07807 7.75775C5.22132 7.49671 5.19659 7.17565 5.01504 6.93964L4.42057 7.39692ZM2.69887 5.1587L2.16854 4.62837C1.90216 4.89475 1.87471 5.31739 2.1044 5.61599L2.69887 5.1587ZM5.15837 2.6992L5.61565 2.10474C5.31706 1.87505 4.89442 1.9025 4.62804 2.16887L5.15837 2.6992ZM7.39647 4.42082L6.93919 5.01529C7.17522 5.19685 7.4963 5.22157 7.75734 5.07829L7.39647 4.42082ZM8.89561 3.79925L9.10567 4.51923C9.39141 4.43586 9.60081 4.19141 9.63931 3.89625L8.89561 3.79925ZM12.739 0.25H9.26073V1.75H12.739V0.25ZM13.8478 3.70216L13.4827 0.902996L11.9953 1.097L12.3604 3.89617L13.8478 3.70216ZM12.8941 4.51915C13.367 4.65713 13.8186 4.84555 14.2427 5.07832L14.9645 3.76338C14.4459 3.47874 13.8932 3.24811 13.3141 3.07917L12.8941 4.51915ZM16.3845 2.10472L14.1463 3.82638L15.0609 5.01532L17.299 3.29366L16.3845 2.10472ZM19.8316 4.62836L17.3721 2.16886L16.3114 3.22952L18.7709 5.68902L19.8316 4.62836ZM18.1739 7.85428L19.8957 5.61597L18.7068 4.70141L16.985 6.93972L18.1739 7.85428ZM16.922 7.75782C17.1546 8.18169 17.3429 8.63305 17.4808 9.10576L18.9208 8.68567C18.7519 8.10687 18.5214 7.5545 18.237 7.03618L16.922 7.75782ZM21.097 8.51713L18.2978 8.15201L18.1038 9.63941L20.903 10.0045L21.097 8.51713ZM21.75 12.7391V9.26083H20.25V12.7391H21.75ZM18.2978 13.8479L21.097 13.4828L20.903 11.9954L18.1038 12.3605L18.2978 13.8479ZM17.4808 12.8942C17.3428 13.3671 17.1544 13.8187 16.9217 14.2427L18.2366 14.9645C18.5212 14.4459 18.7519 13.8933 18.9208 13.3142L17.4808 12.8942ZM19.895 16.3841L18.1736 14.1463L16.9847 15.0609L18.706 17.2986L19.895 16.3841ZM17.3713 19.8312L19.8308 17.3717L18.7702 16.311L16.3107 18.7705L17.3713 19.8312ZM14.1458 18.1739L16.3837 19.8953L17.2983 18.7064L15.0604 16.9849L14.1458 18.1739ZM14.2423 16.9219C13.8183 17.1546 13.3669 17.3429 12.8941 17.4808L13.3141 18.9208C13.8931 18.7519 14.4455 18.5214 14.964 18.2369L14.2423 16.9219ZM13.4827 21.097L13.8478 18.2978L12.3604 18.1038L11.9953 20.903L13.4827 21.097ZM9.26073 21.75H12.739V20.25H9.26073V21.75ZM8.15191 18.2978L8.51703 21.097L10.0044 20.903L9.63931 18.1037L8.15191 18.2978ZM9.10567 17.4808C8.63297 17.3429 8.18161 17.1545 7.75776 16.9219L7.0361 18.2369C7.5544 18.5214 8.10677 18.7519 8.68555 18.9207L9.10567 17.4808ZM5.6164 19.8953L7.85421 18.1739L6.93964 16.985L4.70183 18.7064L5.6164 19.8953ZM2.16928 17.3717L4.62878 19.8312L5.68944 18.7705L3.22994 16.311L2.16928 17.3717ZM3.82642 14.1464L2.10514 16.384L3.29408 17.2986L5.01536 15.0609L3.82642 14.1464ZM5.07836 14.2428C4.84559 13.8187 4.65716 13.3671 4.51918 12.8942L3.07921 13.3142C3.24815 13.8933 3.47879 14.446 3.76343 14.9645L5.07836 14.2428ZM0.902996 13.4828L3.70219 13.8479L3.8962 12.3605L1.097 11.9954L0.902996 13.4828ZM0.25 9.26083V12.7391H1.75V9.26083H0.25ZM3.70221 8.15201L0.902996 8.51713L1.097 10.0045L3.89622 9.63941L3.70221 8.15201ZM4.5192 9.10576C4.65712 8.63302 4.84544 8.18163 5.07807 7.75775L3.76308 7.03609C3.47861 7.55443 3.2481 8.10684 3.07923 8.68566L4.5192 9.10576ZM2.1044 5.61599L3.8261 7.8542L5.01504 6.93964L3.29334 4.70142L2.1044 5.61599ZM4.62804 2.16887L2.16854 4.62837L3.2292 5.68903L5.6887 3.22953L4.62804 2.16887ZM7.85375 3.82635L5.61565 2.10474L4.70109 3.29367L6.93919 5.01529L7.85375 3.82635ZM7.75734 5.07829C8.18132 4.84558 8.63281 4.65719 9.10567 4.51923L8.68555 3.07927C8.10658 3.24819 7.55405 3.47878 7.0356 3.76335L7.75734 5.07829ZM8.51703 0.902996L8.15191 3.70224L9.63931 3.89625L10.0044 1.097L8.51703 0.902996Z" fill="white"/>
<circle cx="11" cy="11" r="3.25" stroke="white" stroke-width="1.5"/>
</svg>
