<svg width="25" height="21" viewBox="0 0 25 21" fill="none" xmlns="http://www.w3.org/2000/svg">
<path d="M17.6319 5.5238C18.5366 6.36825 20.3462 8.63618 20.3462 10.9524C20.3462 13.2686 18.5366 15.5365 17.6319 16.3809" stroke="white" stroke-width="1.5" stroke-linecap="round" stroke-linejoin="round"/>
<path d="M20.3462 2.80957C21.5525 4.07624 23.9652 7.47814 23.9652 10.9524C23.9652 14.4267 21.5525 17.8286 20.3462 19.0953" stroke="white" stroke-width="1.5" stroke-linecap="round" stroke-linejoin="round"/>
<path d="M14.0124 1H14.7624C14.7624 0.731323 14.6186 0.483171 14.3856 0.349465C14.1526 0.215759 13.8658 0.216927 13.6338 0.352527L14.0124 1ZM14.0124 20L13.6647 20.6646C13.8972 20.7862 14.1764 20.7775 14.4008 20.6416C14.6253 20.5057 14.7624 20.2624 14.7624 20H14.0124ZM6.27427 5.52381V6.27381C6.40731 6.27381 6.53795 6.23842 6.6528 6.17128L6.27427 5.52381ZM1.3457 5.52381V4.77381C0.93149 4.77381 0.595703 5.1096 0.595703 5.52381H1.3457ZM1.3457 8.2381H0.595703C0.595703 8.65231 0.93149 8.9881 1.3457 8.9881L1.3457 8.2381ZM1.34646 8.2381H2.09646C2.09646 7.82388 1.76068 7.4881 1.34646 7.4881V8.2381ZM1.34646 13.6667V14.4167C1.76068 14.4167 2.09646 14.0809 2.09646 13.6667H1.34646ZM1.3457 13.6667V12.9167C0.93149 12.9167 0.595703 13.2525 0.595703 13.6667H1.3457ZM1.3457 15.4762H0.595703C0.595703 15.8904 0.93149 16.2262 1.3457 16.2262L1.3457 15.4762ZM5.36391 15.4762L5.71153 14.8116C5.60425 14.7555 5.48498 14.7262 5.36391 14.7262V15.4762ZM13.2624 1V20H14.7624V1H13.2624ZM6.6528 6.17128L14.3909 1.64747L13.6338 0.352527L5.89575 4.87634L6.6528 6.17128ZM1.3457 6.27381H6.27427V4.77381H1.3457V6.27381ZM2.0957 8.2381V5.52381H0.595703V8.2381H2.0957ZM1.3457 8.9881H1.34646V7.4881H1.3457V8.9881ZM0.596463 8.2381V13.6667H2.09646V8.2381H0.596463ZM1.34646 12.9167H1.3457V14.4167H1.34646V12.9167ZM2.0957 15.4762V13.6667H0.595703V15.4762H2.0957ZM5.36391 14.7262H1.3457V16.2262H5.36391V14.7262ZM14.36 19.3354L5.71153 14.8116L5.01629 16.1408L13.6647 20.6646L14.36 19.3354Z" fill="white"/>
</svg>
