<svg width="24" height="25" viewBox="0 0 24 25" fill="none" xmlns="http://www.w3.org/2000/svg">
<path d="M10.1199 1L12.6449 3.51295L10.1199 6.0259" stroke="white" stroke-width="1.5" stroke-linecap="round" stroke-linejoin="round"/>
<path d="M11.8457 3.19995C6.04671 3.19995 1.3457 7.87858 1.3457 13.65C1.3457 19.4213 6.04671 24.1 11.8457 24.1C17.6447 24.1 22.3457 19.6788 22.3457 13.65C22.3457 11.7743 21.4572 7.37995 17.9034 4.80764" stroke="white" stroke-width="1.5" stroke-linecap="round" stroke-linejoin="round"/>
<path d="M14.7963 11H11.6314V13.75C11.8952 13.5833 12.5809 13.25 13.2138 13.25C14.0051 13.25 15.06 14 15.06 15C15.06 16 14.2688 17 13.2138 17C12.3699 17 11.8072 16.6667 11.6314 16.5" stroke="white" stroke-width="1.2" stroke-linecap="round" stroke-linejoin="round"/>
<path d="M7.3457 12.3846L9.05999 11V17" stroke="white" stroke-width="1.2" stroke-linecap="round" stroke-linejoin="round"/>
</svg>
