<svg width="24" height="26" viewBox="0 0 24 26" fill="none" xmlns="http://www.w3.org/2000/svg">
<path d="M13.5716 2L11.0466 4.52497L13.5716 7.04994" stroke="white" stroke-width="1.5" stroke-linecap="round" stroke-linejoin="round"/>
<path d="M11.8457 4.21057C17.6447 4.21057 22.3457 8.91158 22.3457 14.7106C22.3457 20.5096 17.6447 25.2106 11.8457 25.2106C6.04671 25.2106 1.3457 20.7683 1.3457 14.7106C1.3457 12.826 2.23417 8.41057 5.78801 5.82596" stroke="white" stroke-width="1.5" stroke-linecap="round" stroke-linejoin="round"/>
<path d="M14.7963 12H11.6314V14.75C11.8952 14.5833 12.5809 14.25 13.2138 14.25C14.0051 14.25 15.06 15 15.06 16C15.06 17 14.2688 18 13.2138 18C12.3699 18 11.8072 17.6667 11.6314 17.5" stroke="white" stroke-width="1.2" stroke-linecap="round" stroke-linejoin="round"/>
<path d="M7.3457 13.3846L9.05999 12V18" stroke="white" stroke-width="1.2" stroke-linecap="round" stroke-linejoin="round"/>
</svg>
