<svg version="1.1" x="0px" y="0px" viewBox="0 0 1000 1000" enable-background="new 0 0 1000 1000" xmlns="http://www.w3.org/2000/svg">
  <g>
    <path d="M 900.4 77.8 C 924 77.8 944.9 86.8 962.9 104.9 C 981 123 990 143.8 990 167.4 L 990 701.2 C 990 724.8 981 745.3 962.9 762.7 C 944.8 780.1 924 788.8 900.4 788.8 L 723.1 788.8 L 723.1 744.556 L 946.226 743.565 L 945.661 122.064 L 55.329 122.707 L 53.843 744.616 L 276.8 745.23 L 276.8 788.8 L 99.6 788.8 C 76 788.8 55.1 780.1 37.1 762.7 C 19 745.3 10 724.8 10 701.2 L 10 167.4 C 10 143.8 19 122.9 37.1 104.9 C 55.2 86.8 76 77.8 99.6 77.8 L 900.4 77.8 Z M 233.1 922.3 L 500 655.3 L 766.9 922.2 L 233.1 922.2 L 233.1 922.3 Z"/>
  </g>
</svg>
