<svg version="1.0" xmlns="http://www.w3.org/2000/svg"
 width="48.000000pt" height="48.000000pt" viewBox="0 0 48.000000 48.000000"
 preserveAspectRatio="xMidYMid meet">

<g transform="translate(0.000000,48.000000) scale(0.100000,-0.100000)"
fill="#000000" stroke="none">
<path d="M130 445 l-24 -26 27 -26 c20 -21 29 -25 38 -16 9 9 9 16 -1 28 -10
12 -10 18 0 30 11 14 6 35 -9 35 -4 0 -18 -11 -31 -25z"/>
<path d="M210 445 l-24 -26 28 -27 c26 -26 28 -26 41 -9 13 18 15 18 49 2 105
-50 128 -176 47 -256 -89 -90 -234 -48 -266 76 -16 65 -41 69 -38 6 3 -54 38
-110 90 -142 57 -36 154 -34 210 3 75 49 107 138 84 226 -15 55 -76 117 -129
132 -22 5 -43 17 -46 25 -8 21 -19 19 -46 -10z"/>
<path d="M158 303 c-22 -5 -24 -33 -3 -33 11 0 15 -12 15 -50 0 -38 4 -50 15
-50 12 0 15 14 15 70 0 72 -1 74 -42 63z"/>
<path d="M234 296 c-13 -33 0 -61 29 -64 39 -5 28 -28 -12 -24 -22 1 -31 -2
-31 -13 0 -18 40 -29 69 -20 43 13 35 85 -10 85 -11 0 -19 5 -19 10 0 6 11 10
25 10 16 0 25 6 25 15 0 20 -68 21 -76 1z"/>
</g>
</svg>
